<?xml version="1.0" encoding="UTF-8" standalone="no"?>
<!-- Created with Inkscape (http://www.inkscape.org/) -->

<svg
   xmlns:dc="http://purl.org/dc/elements/1.1/"
   xmlns:cc="http://creativecommons.org/ns#"
   xmlns:rdf="http://www.w3.org/1999/02/22-rdf-syntax-ns#"
   xmlns:svg="http://www.w3.org/2000/svg"
   xmlns="http://www.w3.org/2000/svg"
   xmlns:sodipodi="http://sodipodi.sourceforge.net/DTD/sodipodi-0.dtd"
   xmlns:inkscape="http://www.inkscape.org/namespaces/inkscape"
   width="64px"
   height="64px"
   viewBox="0 0 64 64"
   version="1.1"
   id="SVGRoot"
   sodipodi:docname="icon.svg"
   inkscape:export-filename="/home/jacob/go/src/luffare/assets/icon.png"
   inkscape:export-xdpi="96.000008"
   inkscape:export-ydpi="96.000008"
   inkscape:version="0.92.4 5da689c313, 2019-01-14">
  <defs
     id="defs10" />
  <sodipodi:namedview
     id="base"
     pagecolor="#ffffff"
     bordercolor="#666666"
     borderopacity="1.0"
     inkscape:pageopacity="0.0"
     inkscape:pageshadow="2"
     inkscape:zoom="11.313708"
     inkscape:cx="31.670215"
     inkscape:cy="31.250747"
     inkscape:document-units="px"
     inkscape:current-layer="layer1"
     showgrid="false"
     inkscape:window-width="1920"
     inkscape:window-height="1007"
     inkscape:window-x="0"
     inkscape:window-y="0"
     inkscape:window-maximized="1"
     inkscape:grid-bbox="true">
    <inkscape:grid
       type="xygrid"
       id="grid4950" />
  </sodipodi:namedview>
  <metadata
     id="metadata13">
    <rdf:RDF>
      <cc:Work
         rdf:about="">
        <dc:format>image/svg+xml</dc:format>
        <dc:type
           rdf:resource="http://purl.org/dc/dcmitype/StillImage" />
      </cc:Work>
    </rdf:RDF>
  </metadata>
  <g
     inkscape:label="Layer 1"
     inkscape:groupmode="layer"
     id="layer1">
    <circle
       style="opacity:1;fill:#800000;stroke:none;stroke-width:1.48096788;stroke-miterlimit:4;stroke-dasharray:none;stroke-opacity:1"
       id="path4971"
       cx="32"
       cy="32"
       r="32" />
    <g
       id="g4940"
       transform="translate(0.4375,-0.4375)"
       style="fill:#ffffff">
      <g
         style="fill:#ffffff"
         transform="matrix(0.5,0,0,0.5,13.5,14.5)"
         inkscape:label="Layer 1"
         id="layer1-3">
        <path
           style="fill:#ffffff;stroke-width:0.05342292"
           d="M 3.0181937,28.955025 1.182e-4,25.936595 4.9682,20.968297 9.9362828,16 4.9681409,11.031643 0,6.0632872 3.0316433,3.0316436 6.0632865,1.1999999e-7 11.031643,4.9681414 16,9.936283 20.968357,4.9681414 25.936714,1.2e-7 28.968357,3.0316436 32,6.0632872 27.031859,11.031643 22.063717,16 27.031859,20.968357 32,25.936713 28.968357,28.968357 25.936714,32 20.968357,27.031859 16,22.063717 l -4.955084,4.95487 c -2.7252954,2.725177 -4.9671351,4.954868 -4.9818648,4.954868 -0.014735,0 -1.3849156,-1.358293 -3.0448575,-3.01843 z"
           id="path31"
           inkscape:connector-curvature="0" />
      </g>
      <g
         style="fill:#ffffff"
         transform="matrix(0.5,0,0,0.5,33.75,14.5)"
         inkscape:label="Layer 1"
         id="layer1-1">
        <path
           style="fill:#ffffff"
           d="m 15.75,0 a 16,16 0 0 0 -16,16 16,16 0 0 0 16,16 16,16 0 0 0 16,-16 16,16 0 0 0 -16,-16 z m 0,8.5703125 A 7.4299998,7.4299998 0 0 1 23.179688,16 7.4299998,7.4299998 0 0 1 15.75,23.429688 7.4299998,7.4299998 0 0 1 8.320312,16 7.4299998,7.4299998 0 0 1 15.75,8.5703125 Z"
           id="path8"
           inkscape:connector-curvature="0" />
      </g>
      <g
         style="fill:#ffffff;stroke:none"
         transform="matrix(0.5,0,0,0.5,33.625,34.375)"
         inkscape:label="Layer 1"
         id="layer1-3-2">
        <path
           style="fill:#ffffff;stroke:none;stroke-width:0.05342292"
           d="M 3.0181937,28.955025 1.182e-4,25.936595 4.9682,20.968297 9.9362828,16 4.9681409,11.031643 0,6.0632872 3.0316433,3.0316436 6.0632865,1.1999999e-7 11.031643,4.9681414 16,9.936283 20.968357,4.9681414 25.936714,1.2e-7 28.968357,3.0316436 32,6.0632872 27.031859,11.031643 22.063717,16 27.031859,20.968357 32,25.936713 28.968357,28.968357 25.936714,32 20.968357,27.031859 16,22.063717 l -4.955084,4.95487 c -2.7252954,2.725177 -4.9671351,4.954868 -4.9818648,4.954868 -0.014735,0 -1.3849156,-1.358293 -3.0448575,-3.01843 z"
           id="path31-7"
           inkscape:connector-curvature="0" />
      </g>
      <g
         style="fill:#ffffff"
         transform="matrix(0.5,0,0,0.5,13.5,34.375)"
         inkscape:label="Layer 1"
         id="layer1-1-3">
        <path
           style="fill:#ffffff"
           d="M 16,0 A 16,16 0 0 0 0,16 16,16 0 0 0 16,32 16,16 0 0 0 32,16 16,16 0 0 0 16,0 Z m 0,8.5703125 A 7.4299998,7.4299998 0 0 1 23.429688,16 7.4299998,7.4299998 0 0 1 16,23.429688 7.4299998,7.4299998 0 0 1 8.570312,16 7.4299998,7.4299998 0 0 1 16,8.5703125 Z"
           id="path8-6"
           inkscape:connector-curvature="0" />
      </g>
    </g>
  </g>
</svg>
