<?xml version="1.0" encoding="UTF-8" standalone="no"?>
<svg
   inkscape:export-ydpi="192"
   inkscape:export-xdpi="192"
   inkscape:export-filename="/home/jacob/SEABourne/Icon.png"
   sodipodi:docname="Icon.svg"
   inkscape:version="1.1 (c68e22c387, 2021-05-23)"
   width="512.0px"
   height="512.0px"
   viewBox="0 0 512.0 512.0"
   version="1.1"
   id="SVGRoot"
   xmlns:inkscape="http://www.inkscape.org/namespaces/inkscape"
   xmlns:sodipodi="http://sodipodi.sourceforge.net/DTD/sodipodi-0.dtd"
   xmlns="http://www.w3.org/2000/svg"
   xmlns:svg="http://www.w3.org/2000/svg"
   xmlns:rdf="http://www.w3.org/1999/02/22-rdf-syntax-ns#"
   xmlns:cc="http://creativecommons.org/ns#"
   xmlns:dc="http://purl.org/dc/elements/1.1/">
  <defs
     id="defs833">
    <marker
       inkscape:isstock="true"
       style="overflow:visible"
       id="marker1744"
       refX="0.0"
       refY="0.0"
       orient="auto"
       inkscape:stockid="Arrow1Lstart">
      <path
         transform="scale(0.8) translate(12.5,0)"
         style="fill-rule:evenodd;stroke:#000000;stroke-width:1pt;stroke-opacity:1;fill:#000000;fill-opacity:1"
         d="M 0.0,0.0 L 5.0,-5.0 L -12.5,0.0 L 5.0,5.0 L 0.0,0.0 z "
         id="path1742" />
    </marker>
    <marker
       inkscape:isstock="true"
       style="overflow:visible"
       id="Arrow1Lstart"
       refX="0.0"
       refY="0.0"
       orient="auto"
       inkscape:stockid="Arrow1Lstart">
      <path
         transform="scale(0.8) translate(12.5,0)"
         style="fill-rule:evenodd;stroke:#000000;stroke-width:1pt;stroke-opacity:1;fill:#000000;fill-opacity:1"
         d="M 0.0,0.0 L 5.0,-5.0 L -12.5,0.0 L 5.0,5.0 L 0.0,0.0 z "
         id="path1466" />
    </marker>
  </defs>
  <sodipodi:namedview
     showguides="true"
     inkscape:window-maximized="1"
     inkscape:window-y="0"
     inkscape:window-x="0"
     inkscape:window-height="1011"
     inkscape:window-width="1920"
     showgrid="false"
     inkscape:document-rotation="0"
     inkscape:current-layer="layer1"
     inkscape:document-units="px"
     inkscape:cy="254"
     inkscape:cx="243.5"
     inkscape:zoom="1"
     inkscape:pageshadow="2"
     inkscape:pageopacity="0"
     borderopacity="1.0"
     bordercolor="#666666"
     pagecolor="#808080"
     id="base"
     inkscape:pagecheckerboard="true">
    <inkscape:grid
       type="xygrid"
       id="grid1403" />
  </sodipodi:namedview>
  <metadata
     id="metadata836">
    <rdf:RDF>
      <cc:Work
         rdf:about="">
        <dc:format>image/svg+xml</dc:format>
        <dc:type
           rdf:resource="http://purl.org/dc/dcmitype/StillImage" />
      </cc:Work>
    </rdf:RDF>
  </metadata>
  <g
     id="layer1"
     inkscape:groupmode="layer"
     inkscape:label="Layer 1">
    <circle
       r="246.11891"
       cy="256"
       cx="256"
       id="path1764"
       style="fill:#214478;stroke:#ffffff;stroke-width:19.7622;stroke-miterlimit:4;stroke-dasharray:none" />
    <path
       style="fill:#ffffff;stroke:none;stroke-width:2.06088;stroke-miterlimit:4;stroke-dasharray:none"
       d="m 293.10114,359.48995 c -5.8823,-0.72329 -19.47184,-4.06032 -18.89286,-4.63931 0.0917,-0.0917 3.57413,-0.58328 7.7387,-1.09235 9.34236,-1.14204 18.09327,-2.45261 23.92533,-3.58314 11.88586,-2.30408 22.98535,-7.17917 41.52015,-18.23645 11.16573,-6.66108 15.69332,-9.14741 22.06379,-12.11629 l 5.46273,-2.54585 -2.75605,-3.28752 c -7.09259,-8.46038 -11.88503,-18.06917 -14.08184,-28.23395 -1.10302,-5.10374 -1.08068,-26.09345 0.0364,-34.14269 0.42547,-3.06595 0.89562,-6.57785 1.04478,-7.80422 l 0.27119,-2.22978 -1.64449,2.0068 c -2.72178,3.32142 -6.36247,11.23188 -7.80561,16.95995 -1.89464,7.52011 -2.43225,12.79066 -2.13049,20.88671 0.2831,7.59519 0.89577,11.00909 3.84334,21.41551 0.99958,3.52904 1.81743,7.04647 1.81743,7.81649 0,4.01186 -4.91526,4.96758 -7.12874,1.3861 -3.6355,-5.88235 -4.13068,-24.86735 -1.32628,-50.84951 0.47651,-4.41497 0.96339,-8.57908 1.08192,-9.2536 0.12176,-0.69285 0.0129,-1.22636 -0.25044,-1.22636 -1.66487,0 -9.38064,7.18493 -12.65969,11.78873 -1.05957,1.48765 -3.74239,6.14662 -5.96181,10.35326 -6.97484,13.2199 -10.20989,17.90865 -16.39721,23.76547 -10.73539,10.16194 -22.90902,16.96896 -34.70448,19.40539 -1.8335,0.3787 -3.79361,0.70652 -4.35583,0.72845 -1.71829,0.067 3.04582,1.24472 9.90371,2.4482 8.71372,1.52917 18.36066,1.89168 24.01306,0.90239 3.46376,-0.60622 8.11203,-2.09104 12.75234,-4.0735 1.34489,-0.57458 -1.62593,3.4408 -5.32553,7.19797 -3.77895,3.83776 -6.49657,5.28557 -11.67686,6.22082 -8.30556,1.49949 -27.11376,0.56953 -36.48633,-1.80402 -7.91139,-2.00352 -17.68281,-6.31999 -44.16941,-19.5116 -19.62645,-9.77489 -26.21235,-12.32069 -36.59949,-14.14756 -8.01655,-1.40994 -19.26912,-1.32638 -24.45635,0.18159 -5.04163,1.46562 -7.37854,4.44748 -7.37854,9.41482 0,2.71421 1.23526,7.25015 2.33541,8.57575 0.47737,0.57518 0.3986,0.62604 -0.55508,0.35838 -0.61127,-0.17155 -2.95104,-1.20438 -5.19951,-2.29515 -2.93189,-1.42232 -4.59628,-2.56055 -5.88487,-4.02444 -5.72132,-6.49977 -1.78307,-15.71183 9.02988,-21.12201 5.91912,-2.96158 8.13393,-3.37151 18.1124,-3.35228 7.91903,0.0153 16.92845,0.88073 19.51982,1.87511 0.37605,0.1443 -0.86263,-1.52675 -2.7526,-3.71346 -11.34511,-13.12631 -19.29888,-26.1637 -21.33413,-34.96974 -0.84993,-3.6774 -0.9752,-5.47265 -0.9492,-13.60164 0.02,-6.24046 0.24814,-10.5182 0.68384,-12.82123 0.35962,-1.90087 0.52364,-3.45615 0.36451,-3.45615 -0.15914,0 -1.09651,0.75255 -2.08304,1.67233 -1.72486,1.60817 -1.81258,1.82634 -2.28582,5.68593 -1.33161,10.86012 -1.09753,16.0369 1.10903,24.52757 1.71074,6.58272 3.31771,10.29939 6.99134,16.1698 3.87781,6.1967 4.97391,8.28015 5.40379,10.27132 0.20848,0.96565 -0.0856,1.51537 -0.47186,1.95748 -0.42028,0.48102 -0.99252,0.81148 -2.25345,0.81148 -1.66617,0 -2.25127,-0.26649 -3.8788,-1.7667 -3.32138,-3.06153 -6.56173,-8.45766 -9.5196,-18.06506 -2.99784,-9.73724 -4.15847,-16.09866 -4.20977,-24.21992 -0.0277,-4.37919 0.8638,-8.42644 0.8638,-8.42644 l -11.24545,13.67998 c -6.79122,8.26146 -15.57254,18.85278 -19.39395,23.63565 -9.09501,11.38333 -15.78197,17.94112 -32.266215,31.64307 -3.372538,2.80331 -6.13188,5.23312 -6.13188,5.39959 0,0.1665 1.048275,0.44176 2.329505,0.61173 6.599845,0.8755 27.57613,7.30183 34.94089,10.70457 11.55458,5.33855 25.41057,16.62734 37.23798,30.33864 1.24252,1.44041 0.90385,1.24712 -1.81762,-1.03747 -1.83958,-1.54424 -6.18924,-4.70652 -9.66591,-7.02728 -20.64789,-13.78293 -45.38666,-22.14092 -70.606089,-23.85427 -8.532421,-0.57968 -30.980834,0.60214 -39.690045,2.08951 -0.858466,0.14662 -1.460505,0.17477 -1.337871,0.0625 0.676512,-0.61892 27.157662,-13.14667 30.49401,-14.42615 5.329135,-2.04371 10.250363,-4.65124 15.891066,-8.41991 18.380479,-12.28042 24.525799,-18.65272 46.658849,-48.38236 11.85536,-15.92442 17.46085,-22.74514 24.00579,-29.21011 5.76387,-5.69343 10.39277,-9.12913 16.82614,-12.48887 12.15147,-6.34595 24.47245,-9.30522 38.70892,-9.29717 5.55566,0.003 7.67615,0.1919 10.80408,0.96165 9.86643,2.42806 15.47239,7.70501 15.49751,14.58798 0.0192,5.23258 -2.7774,7.79726 -8.5021,7.79726 -1.6343,0 -3.59066,-0.12384 -4.34748,-0.2752 l -1.37604,-0.2752 0.94331,-1.84309 c 0.51881,-1.0137 0.96242,-2.69031 0.9858,-3.7258 0.0552,-2.44313 -1.15229,-3.71198 -3.80963,-4.00324 -2.66497,-0.29209 -4.64126,1.0964 -6.36895,4.47464 -1.1767,2.30083 -1.33764,3.11394 -1.49827,7.56897 -0.2971,8.24057 1.29547,13.54271 6.19775,20.6341 2.49738,3.61258 7.50347,8.94233 11.71292,12.47014 l 2.62361,2.19881 6.07251,-6.26135 c 17.34244,-17.88174 38.20333,-39.92067 53.08599,-56.08382 11.81852,-12.83541 20.61007,-19.77609 32.32081,-25.5164 10.36174,-5.07904 20.09149,-7.61525 31.0397,-8.09093 13.54516,-0.58852 24.40038,2.28597 30.71682,8.13388 3.34312,3.09515 4.51367,5.50377 4.51367,9.2878 0,3.93988 -1.64485,7.09967 -4.66838,8.96803 -2.0319,1.2556 -2.46523,1.34476 -6.53594,1.34476 -2.69254,0 -4.55596,-0.19623 -4.87279,-0.51315 -0.38676,-0.38685 -0.28727,-0.5848 0.40418,-0.80427 1.36727,-0.43394 3.1864,-2.82163 3.1845,-4.17977 -0.003,-2.75217 -2.89095,-5.42873 -5.85578,-5.42873 -3.50518,0 -8.75448,4.42226 -10.98276,9.2524 -1.54031,3.33886 -1.88825,9.4856 -0.80157,14.16027 1.50421,6.47086 6.27079,14.42492 11.03837,18.41992 6.51616,5.46023 12.9554,7.35181 27.56333,8.09699 11.99337,0.6118 22.32962,2.66306 28.47211,5.65036 8.49111,4.12951 13.66868,13.27463 11.63805,20.55623 -1.20566,4.32341 -6.42041,8.05915 -12.3473,8.84539 -2.76943,0.36737 -6.90761,-0.47159 -7.93708,-1.60913 -0.65472,-0.72345 -0.67446,-0.87065 -0.11678,-0.87065 1.44538,0 4.26864,-2.59668 5.05124,-4.64584 2.006,-5.25268 -0.77821,-8.72293 -7.00446,-8.73033 -2.82817,-0.003 -4.02482,0.52415 -6.55259,2.88858 -4.23645,3.9627 -6.55784,11.28776 -6.15023,19.40671 0.30265,6.02796 1.44775,10.04668 4.76518,16.72333 2.94021,5.91744 6.87608,11.40185 13.76822,19.18518 9.59405,10.8346 15.57146,14.14069 29.0364,16.05986 14.49972,2.06669 23.70161,9.55583 21.95757,17.87062 -0.75906,3.6189 -2.24735,6.24931 -4.91564,8.68799 -2.34194,2.14039 -6.42221,4.38453 -9.46344,5.20491 l -1.5636,0.42176 1.34062,-2.70573 c 2.44704,-4.93878 1.63994,-10.30704 -2.36638,-15.73967 -1.85606,-2.51684 -5.87224,-4.45566 -10.67168,-5.15175 -4.55532,-0.6607 -11.21704,-0.0648 -20.57031,1.84 -5.67399,1.15551 -7.0785,1.63691 -12.26377,4.20349 -6.79804,3.36485 -21.39941,11.85514 -30.82947,17.9265 l -1.33786,0.86136 1.5124,-1.77751 c 3.66532,-4.30781 14.6127,-15.93312 16.51242,-17.535 3.08169,-2.59851 8.02801,-5.69261 12.66346,-7.92144 l 4.09626,-1.96957 -6.0204,0.16615 c -7.24147,0.19982 -13.20323,1.44114 -24.08234,5.01423 -10.02528,3.29268 -15.44093,6.03041 -33.89189,17.13313 -22.10435,13.30112 -31.60209,17.97232 -40.35899,19.84946 -3.96371,0.84967 -14.08714,1.18023 -18.71558,0.61113 z m 97.06491,-46.97893 c 8.95339,-1.95825 12.88786,-2.58997 19.67715,-3.15943 l 3.4839,-0.29222 -4.37581,-2.66242 c -6.92436,-4.21306 -11.97217,-8.34055 -18.01743,-14.73254 -6.10538,-6.45552 -7.52583,-7.54344 -8.64097,-6.61796 -1.14468,0.95001 -0.78612,3.7533 1.15474,9.02781 2.98552,8.1135 2.84559,9.55512 -0.81046,8.34853 -3.86296,-1.27491 -8.5361,-7.71081 -10.17924,-14.01907 -3.13379,-12.03096 1.38115,-32.44296 8.89108,-40.19653 1.85556,-1.91575 2.60259,-2.39221 3.75072,-2.39221 2.39548,0 2.60796,1.14912 1.65106,8.92887 -1.50348,12.22341 -0.18455,19.70745 5.04862,28.64756 5.53407,9.45417 20.40679,22.20794 28.38452,24.34052 l 1.78383,0.47685 -2.67574,-2.31268 c -14.19595,-12.26977 -23.33809,-24.78707 -25.38314,-34.75434 -1.87326,-9.12998 -0.14017,-22.68601 4.34438,-33.98128 1.50483,-3.79019 1.51071,-3.83226 0.53706,-3.83226 -1.56998,0 -7.4215,1.60627 -10.36546,2.84535 -8.84561,3.72308 -15.41111,10.10226 -18.78537,18.25228 -1.79306,4.33089 -3.51393,12.29661 -4.14995,19.20975 -1.13846,12.37453 1.50887,24.42668 7.2201,32.86996 2.50072,3.69697 6.58365,7.98658 7.60179,7.98658 0.43816,0 4.87275,-0.89151 9.85462,-1.98112 z m -122.03716,-1.83237 c 5.38994,-1.40389 11.00154,-5.49206 19.82922,-14.44593 4.47655,-4.54054 8.44121,-9.57043 7.93927,-10.07237 -0.12999,-0.12999 -1.71865,0.007 -3.53036,0.30623 -1.81171,0.29841 -6.10355,0.53752 -9.53739,0.53134 -7.00043,-0.0126 -11.81318,-0.77193 -17.94803,-2.83176 -7.45508,-2.50312 -12.29831,-3.61543 -16.88076,-3.87688 -5.8633,-0.33453 -8.57202,0.29172 -10.91908,2.52441 -1.97202,1.87595 -2.13581,2.85549 -0.8868,5.30376 1.42703,2.79719 4.02041,4.68549 12.04874,8.77291 5.62335,2.863 7.52877,4.03221 7.16433,4.39618 -0.30349,0.30312 -2.351,0.4927 -5.26758,0.48775 -3.71275,-0.007 -5.51303,-0.23739 -8.11577,-1.04166 -8.20885,-2.53669 -17.29773,-8.80163 -27.21361,-18.75829 -9.99072,-10.0318 -17.8873,-21.17147 -21.36462,-30.13897 -1.03288,-2.66368 -1.3828,-3.70734 -1.50554,-5.90965 -0.0526,-0.94334 -0.0636,-2.09931 -0.0684,-3.68624 -0.008,-2.66844 0.0119,-4.11964 0.1811,-5.18517 0.1561,-0.98363 0.43887,-1.63859 0.94251,-2.61906 1.0058,-1.95811 3.4209,-4.22872 4.49779,-4.22872 0.80608,0 4.21869,3.53042 8.59846,8.89534 6.79071,8.31814 8.82198,10.40137 14.74816,15.1254 13.33567,10.63047 24.61801,17.14554 30.68802,17.72096 l 2.31406,0.21938 -1.10473,-0.80105 c -16.7388,-12.13753 -27.45336,-20.57106 -33.27599,-26.19183 -2.3031,-2.22326 -7.00465,-7.55418 -10.44788,-11.84651 -7.37955,-9.19933 -9.96369,-13.83522 -10.65067,-19.10709 -0.25588,-1.96364 -0.73474,-3.61591 -1.19555,-4.1251 -2.28892,-2.52925 -8.38524,1.16947 -11.92273,7.2337 -2.51465,4.31082 -4.20521,14.27043 -3.70859,21.84851 0.7151,10.91219 4.00625,20.51654 10.21943,29.82289 6.08509,9.11447 25.92796,24.74305 40.6869,32.04569 12.53592,6.20269 19.21587,8.9932 23.62953,9.87108 3.07346,0.61133 9.26265,0.4885 12.05666,-0.23925 z m 34.47377,-38.52493 c 3.95613,-1.33709 8.01227,-4.02662 11.18056,-7.41352 4.71812,-5.0437 4.68412,-4.43575 0.72412,-12.94451 -6.25444,-13.43872 -8.34256,-20.08004 -9.12574,-29.02459 -0.73174,-8.35723 0.60238,-19.53361 3.35362,-28.09447 0.75733,-2.35654 -3.97304,5.79415 -5.3292,9.18251 -2.5751,6.43383 -3.54393,12.08285 -3.25672,18.98912 0.31249,7.51392 1.40319,11.66113 6.61914,25.16855 3.37796,8.74766 4.06594,10.9525 4.10703,13.16197 0.0441,2.37066 -0.0637,2.71136 -1.00973,3.19057 -2.57432,1.30407 -5.26957,-1.33607 -7.64065,-7.48446 -1.71906,-4.45769 -4.69299,-16.22797 -5.56944,-22.0428 -1.21669,-8.07226 -0.80122,-19.2776 1.05466,-28.44448 0.43768,-2.16179 0.5932,-3.84033 0.35584,-3.84033 -0.65166,0 -6.7813,3.77621 -10.52945,6.48671 -5.58016,4.03537 -10.79822,8.9755 -28.6418,27.11632 l -17.04178,17.32565 1.03727,0.78241 c 2.09161,1.5777 14.36919,8.14825 19.71867,10.55276 9.34345,4.19975 20.06074,7.50522 27.13287,8.36841 3.55848,0.43432 10.06034,-0.0893 12.86073,-1.03582 z m 31.21306,-25.59165 c 5.50114,-4.64756 14.35417,-11.65044 18.91743,-14.96396 2.14615,-1.55839 3.90212,-3.1309 3.90212,-3.49448 0,-3.38908 -7.84971,-10.17455 -10.71744,-9.26436 -1.45379,0.46141 -3.53611,2.45029 -4.4586,4.25852 -0.47649,0.93399 -1.48256,3.96912 -2.23571,6.74472 -0.75317,2.77561 -1.67159,5.51036 -2.04097,6.07723 -1.41823,2.17652 -2.95969,0.36677 -4.48641,-5.26725 -1.26214,-4.6577 -1.13772,-17.49547 0.22872,-23.59943 2.42226,-10.82028 5.02219,-15.34702 9.50833,-16.55502 2.11533,-0.5696 2.51149,-0.35877 2.78748,1.48346 0.11811,0.78853 0.44802,3.03914 0.73311,5.00133 0.2851,1.96222 0.81885,4.45778 1.18613,5.54573 0.69814,2.06791 9.74136,17.43486 12.41715,21.10012 1.80127,2.46737 2.28417,2.54703 6.08306,1.0034 1.50906,-0.61318 2.96,-1.11795 3.22432,-1.12171 0.26431,-0.003 0.76079,-0.18427 1.1033,-0.40116 0.47933,-0.3035 -0.1258,-1.14923 -2.6276,-3.67229 -9.10313,-9.18047 -13.98313,-17.67025 -14.57595,-25.35788 -0.44409,-5.75894 1.49122,-17.09595 4.29384,-25.15308 0.50457,-1.45059 0.82645,-2.72839 0.71528,-2.83957 -0.37257,-0.37255 -5.92101,2.46674 -9.75691,4.9929 -9.14487,6.02236 -17.40106,14.93578 -21.46082,23.16917 -1.34625,2.73029 -2.83931,6.4077 -3.31789,8.17202 -3.57129,13.16574 -1.69141,29.46639 5.17165,44.84386 0.62943,1.41032 1.23343,2.56423 1.34219,2.56423 0.10875,0 1.93765,-1.46992 4.06419,-3.2665 z m 62.50958,99.58455 c 0,-1.81322 25.71066,-14.6089 34.21922,-17.03022 4.51743,-1.28557 11.21524,-1.39048 13.40626,-0.20999 3.37969,1.8209 4.09425,5.97476 1.78657,10.38548 -1.75599,3.35623 -3.48739,3.24748 -7.13079,-0.44792 -4.374,-4.43643 -6.03448,-4.39777 -19.93118,0.46406 -20.08168,7.02566 -22.35008,7.71973 -22.35008,6.83859 z M 122.5086,336.09363 c -14.80381,-6.14388 -21.15205,-8.16448 -28.750713,-9.15114 -4.321107,-0.56108 -7.953956,-0.36256 -13.093607,0.71546 -4.593125,0.96341 -7.609505,0.27768 -10.443956,-2.37425 -1.458003,-1.36413 -1.566449,-2.8701 -0.350294,-4.86466 2.279832,-3.73908 9.724243,-4.96963 21.06437,-3.4819 2.77193,0.36365 6.645292,1.07936 8.60749,1.59047 7.30679,1.90325 15.8317,6.36602 21.81484,11.42004 4.12599,3.48527 7.0378,7.77017 5.25063,7.72666 -0.16948,-0.005 -2.01391,-0.71542 -4.09876,-1.58068 z m 91.81377,-12.94943 c -17.78678,-8.83383 -23.65119,-11.12375 -29.81017,-11.64008 -3.9191,-0.32857 -5.04761,-0.0153 -6.77276,1.88061 -1.70537,1.87407 -2.52596,1.94062 -4.031,0.32698 -2.45201,-2.62896 -2.86237,-5.59468 -1.13244,-8.18423 1.75198,-2.62254 3.4122,-3.17252 8.79874,-2.91466 10.02023,0.47964 22.24116,5.4759 34.30447,14.02461 5.9504,4.21676 12.06414,10.41332 12.07323,12.23676 0.005,0.80753 -1.91807,-0.0126 -13.43007,-5.72999 z"
       id="path16200"
       sodipodi:nodetypes="sssssscsssscsssssssssssssssssssssssssssssssssssssssssssssscssssssssssscssssscsssscssssssscsssssssssscsssssssssssssssssssscsssssscssscsssssssscssssssssssscssssssssssssssssssssscssssssssssscssssssssssssssssssssssssssscssssssssssssssssssscsssssssssssssssssssssssssscsssssssscss" />
  </g>
</svg>
